<svg width="32" height="32" viewBox="0 0 32 32" fill="none" xmlns="http://www.w3.org/2000/svg">
<g clip-path="url(#clip0_3357_1254)">
<path d="M18.2624 16.5663C18.1879 16.4919 18.1288 16.4037 18.0884 16.3065C18.0481 16.2093 18.0273 16.1051 18.0273 15.9999C18.0273 15.8946 18.0481 15.7904 18.0884 15.6932C18.1288 15.596 18.1879 15.5078 18.2624 15.4335L23.648 10.0479C23.8599 9.82037 23.9753 9.5195 23.9698 9.20862C23.9644 8.89773 23.8384 8.60112 23.6186 8.38126C23.3987 8.1614 23.1021 8.03546 22.7912 8.02997C22.4803 8.02449 22.1794 8.13988 21.952 8.35185L16.5664 13.7375C16.4921 13.812 16.4038 13.8711 16.3066 13.9114C16.2094 13.9517 16.1052 13.9725 16 13.9725C15.8947 13.9725 15.7905 13.9517 15.6934 13.9114C15.5962 13.8711 15.5079 13.812 15.4336 13.7375L10.048 8.35185C9.82048 8.13988 9.51961 8.02449 9.20873 8.02997C8.89785 8.03546 8.60123 8.1614 8.38137 8.38126C8.16151 8.60112 8.03557 8.89773 8.03009 9.20862C8.0246 9.5195 8.14 9.82037 8.35197 10.0479L13.7376 15.4335C13.8121 15.5078 13.8712 15.596 13.9115 15.6932C13.9518 15.7904 13.9726 15.8946 13.9726 15.9999C13.9726 16.1051 13.9518 16.2093 13.9115 16.3065C13.8712 16.4037 13.8121 16.4919 13.7376 16.5663L8.35197 21.9519C8.23407 22.0617 8.1395 22.1942 8.07392 22.3414C8.00833 22.4886 7.97306 22.6475 7.97022 22.8086C7.96738 22.9697 7.99702 23.1298 8.05737 23.2792C8.11772 23.4286 8.20755 23.5644 8.3215 23.6783C8.43545 23.7923 8.57119 23.8821 8.72061 23.9424C8.87003 24.0028 9.03008 24.0324 9.1912 24.0296C9.35233 24.0268 9.51123 23.9915 9.65843 23.9259C9.80562 23.8603 9.93811 23.7658 10.048 23.6479L15.4336 18.2623C15.5079 18.1878 15.5962 18.1286 15.6934 18.0883C15.7905 18.048 15.8947 18.0272 16 18.0272C16.1052 18.0272 16.2094 18.048 16.3066 18.0883C16.4038 18.1286 16.4921 18.1878 16.5664 18.2623L21.952 23.6479C22.1794 23.8598 22.4803 23.9752 22.7912 23.9697C23.1021 23.9642 23.3987 23.8383 23.6186 23.6184C23.8384 23.3986 23.9644 23.102 23.9698 22.7911C23.9753 22.4802 23.8599 22.1793 23.648 21.9519L18.2624 16.5663Z" fill="#707372"/>
</g>
<defs>
<clipPath id="clip0_3357_1254">
<rect width="16" height="16" fill="white" transform="translate(8 8)"/>
</clipPath>
</defs>
</svg>
