<svg width="34" height="33" viewBox="0 0 34 33" fill="none" xmlns="http://www.w3.org/2000/svg">
<path d="M6.64688 31.9949L6.66689 23.3145H4.79631C2.69565 23.3145 0.995117 21.5946 0.995117 19.4923V4.83726C0.995117 2.72499 2.70565 1.005 4.79631 1.005H29.1939C31.2946 1.005 32.9951 2.72499 32.9951 4.83726V19.5024C32.9951 21.6147 31.2846 23.3246 29.1939 23.3246H15.3196L6.64688 32.005V31.9949ZM4.79631 2.44336C3.4859 2.44336 2.42556 3.50955 2.42556 4.8272V19.4923C2.42556 20.81 3.4859 21.8762 4.79631 21.8762H8.10734L8.08733 28.5147L14.7294 21.8762H29.1939C30.5043 21.8762 31.5647 20.81 31.5647 19.4923V4.83726C31.5647 3.51961 30.5043 2.45342 29.1939 2.45342H4.79631V2.44336Z" fill="#007B53" stroke="#007B53" stroke-width="0.6"/>
<path d="M25.2537 9.11113C25.895 9.80172 29.9951 11.005 29.9951 11.005C29.9951 11.005 25.8853 12.2188 25.2537 12.8989C24.6222 13.579 23.4951 18.005 23.4951 18.005C23.4951 18.005 22.3486 13.5581 21.7365 12.8989C21.1244 12.2397 16.9951 11.005 16.9951 11.005C16.9951 11.005 21.0175 9.88542 21.7365 9.11113C22.4555 8.33684 23.4951 4.005 23.4951 4.005C23.4951 4.005 24.6125 8.42055 25.2537 9.11113Z" fill="#007B53"/>
</svg>
