<svg width="48" height="48" viewBox="0 0 48 48" fill="none" xmlns="http://www.w3.org/2000/svg">
<rect width="48" height="48" fill="#3B6FB6"/>
<path d="M31.4932 24.8692L24.8812 31.8532C24.7732 31.9732 24.6412 32.0572 24.4972 32.1172C24.3532 32.1772 24.1972 32.2132 24.0412 32.2132C23.8852 32.2132 23.7292 32.1892 23.5852 32.1292C23.4412 32.0692 23.3092 31.9852 23.2012 31.8652L22.8412 31.5052C22.6132 31.2772 22.4812 30.9652 22.4812 30.6412C22.4812 30.3172 22.5892 30.0052 22.7932 29.7652L25.5532 26.6812C25.9972 26.1892 25.8172 25.7812 25.1572 25.7812H17.3572C17.0332 25.7812 16.7332 25.6492 16.5052 25.4332C16.2772 25.2052 16.1572 24.9052 16.1572 24.5812V23.3812C16.1572 23.0572 16.2892 22.7572 16.5052 22.5292C16.7332 22.3012 17.0332 22.1812 17.3572 22.1812H25.1332C25.7932 22.1812 25.9732 21.7852 25.5172 21.2932L22.6732 18.1972C22.4572 17.9572 22.3492 17.6452 22.3492 17.3212C22.3492 16.9972 22.4812 16.6972 22.7092 16.4692L23.0692 16.1092C23.1772 16.0012 23.3092 15.9172 23.4532 15.8572C23.6092 15.8092 23.7652 15.7852 23.9212 15.7852C24.0772 15.7852 24.2332 15.8212 24.3772 15.8812C24.5212 15.9412 24.6532 16.0372 24.7612 16.1452L31.4932 23.1292C31.7092 23.3692 31.8412 23.6692 31.8412 23.9932C31.8412 24.3172 31.7212 24.6292 31.4932 24.8572V24.8692Z" fill="white"/>
</svg>
