<svg width="18" height="18" viewBox="0 0 18 18" fill="none" xmlns="http://www.w3.org/2000/svg">
<path d="M15.0996 0.799805C16.2601 0.799805 17.2002 1.73993 17.2002 2.90039V10.1904C17.2 11.3507 16.2599 12.29 15.0996 12.29H8.25195L3.9707 16.5518L3.62988 16.8916V12.2998H2.91016C1.74976 12.2998 0.809676 11.3606 0.80957 10.2002V2.90039C0.799334 1.73893 1.74003 0.800042 2.89941 0.799805H15.0996ZM3.09961 1.91992H2.89941C2.35897 1.92016 1.91016 2.36185 1.91016 2.91016V10.2002C1.91026 10.7406 2.35123 11.1902 2.89941 11.1904H4.75V14.208L7.71875 11.248L7.77734 11.1904H15.0898C15.6304 11.1904 16.08 10.7486 16.0801 10.2002V2.90039C16.0801 2.35975 15.6383 1.91016 15.0898 1.91016H3.09961V1.91992Z" fill="#007B53" stroke="#007B53" stroke-width="0.4"/>
<path d="M13.1799 5.11004C13.5099 5.44004 15.6199 6.01004 15.6199 6.01004C15.6199 6.01004 13.4999 6.59004 13.1799 6.91004C12.8599 7.23004 12.2799 9.35004 12.2799 9.35004C12.2799 9.35004 11.6899 7.22004 11.3799 6.91004C11.0699 6.60004 8.93994 6.01004 8.93994 6.01004C8.93994 6.01004 11.0099 5.48004 11.3799 5.11004C11.7499 4.74004 12.2799 2.67004 12.2799 2.67004C12.2799 2.67004 12.8599 4.78004 13.1799 5.11004Z" fill="#007B53"/>
</svg>
