<svg width="26" height="26" viewBox="0 0 26 26" fill="none" xmlns="http://www.w3.org/2000/svg">
<path d="M22.1396 0.799805C23.82 0.799805 25.1892 2.16933 25.1895 3.84961V14.7803C25.1893 16.4606 23.82 17.8301 22.1396 17.8301H11.8223L5.38086 24.2705L5.04004 24.6113V24.1094L5.05859 17.8398H3.85938C2.17914 17.8396 0.809592 16.4703 0.80957 14.79V3.84961C0.799775 2.16874 2.17005 0.799921 3.84961 0.799805H22.1396ZM3.84961 2.26953C2.98029 2.26965 2.26974 2.98032 2.26953 3.84961V14.7803C2.26968 15.6496 2.98026 16.3602 3.84961 16.3604H6.53027V21.0273L11.1582 16.418L11.2168 16.3604H22.1494C23.0189 16.3604 23.7293 15.6497 23.7295 14.7803V3.84961C23.7293 2.98024 23.0188 2.26953 22.1494 2.26953H3.84961Z" fill="#007B53" stroke="#007B53" stroke-width="0.4"/>
<path d="M19.2702 7.16C19.7602 7.65 22.9302 8.51 22.9302 8.51C22.9302 8.51 19.7502 9.38 19.2702 9.86C18.7902 10.34 17.9202 13.52 17.9202 13.52C17.9202 13.52 17.0402 10.33 16.5702 9.86C16.1002 9.39 12.9102 8.51 12.9102 8.51C12.9102 8.51 16.0202 7.71 16.5702 7.16C17.1202 6.61 17.9202 3.5 17.9202 3.5C17.9202 3.5 18.7802 6.67 19.2702 7.16Z" fill="#007B53"/>
</svg>
