<svg width="16" height="18" viewBox="0 0 16 18" fill="none" xmlns="http://www.w3.org/2000/svg">
<path d="M8.00051 0.708984C10.5524 0.709155 12.6206 2.77815 12.6206 5.33008C12.6205 7.46292 11.1755 9.25649 9.21103 9.78847C9.02309 9.83936 8.8843 10.0049 8.8843 10.1996C8.8843 10.4055 9.03863 10.5777 9.24166 10.612C12.4163 11.1488 14.9039 13.7062 15.3326 16.9161C15.3748 17.2319 15.1195 17.5 14.801 17.5H1.19909C0.880533 17.5 0.625246 17.2319 0.667412 16.9161C1.09615 13.7056 3.58393 11.148 6.75933 10.6119C6.96237 10.5777 7.11672 10.4055 7.11672 10.1996C7.11672 10.0049 6.97793 9.83938 6.79 9.78852C4.82518 9.25676 3.3795 7.46314 3.37942 5.33008C3.37942 2.77805 5.44848 0.708984 8.00051 0.708984Z" fill="#6A6D6F"/>
</svg>
